<mxfile host="app.diagrams.net" modified="2023-01-04T10:09:08.006Z" agent="5.0 (Windows NT 10.0; Win64; x64) AppleWebKit/537.36 (KHTML, like Gecko) Chrome/108.0.0.0 Safari/537.36" etag="7d3if1z51B7q499ykcY2" version="20.8.1" type="github">
  <diagram id="jxSS41EcVF4YZttKIZIM" name="Sayfa -1">
    <mxGraphModel dx="2876" dy="2266" grid="1" gridSize="10" guides="1" tooltips="1" connect="1" arrows="1" fold="1" page="1" pageScale="1" pageWidth="827" pageHeight="1169" math="0" shadow="0">
      <root>
        <mxCell id="0" />
        <mxCell id="1" parent="0" />
        <mxCell id="kzVESOwCpPis6eRwZn5d-6" value="" style="rounded=1;whiteSpace=wrap;html=1;strokeColor=default;fillColor=#E1D5E7;gradientColor=none;rotation=90;movable=0;resizable=0;rotatable=0;deletable=0;editable=0;connectable=0;" parent="1" vertex="1">
          <mxGeometry x="670" y="110" width="840" height="610" as="geometry" />
        </mxCell>
        <mxCell id="kzVESOwCpPis6eRwZn5d-5" value="" style="rounded=1;whiteSpace=wrap;html=1;strokeColor=default;fillColor=#E1D5E7;gradientColor=none;rotation=90;movable=0;resizable=0;rotatable=0;deletable=0;editable=0;connectable=0;" parent="1" vertex="1">
          <mxGeometry x="-165" y="110" width="840" height="610" as="geometry" />
        </mxCell>
        <mxCell id="kzVESOwCpPis6eRwZn5d-2" value="" style="strokeColor=#666666;html=1;labelPosition=right;align=left;spacingLeft=15;shadow=0;dashed=0;outlineConnect=0;shape=mxgraph.rack.general.cat5e_rack_mount_patch_panel_96_ports;fillColor=#f5f5f5;gradientColor=#b3b3b3;" parent="1" vertex="1">
          <mxGeometry x="1030" y="560" width="110" height="80" as="geometry" />
        </mxCell>
        <mxCell id="kzVESOwCpPis6eRwZn5d-25" value="" style="group" parent="1" vertex="1" connectable="0">
          <mxGeometry x="1188" y="712" width="100" height="102" as="geometry" />
        </mxCell>
        <mxCell id="kzVESOwCpPis6eRwZn5d-26" value="" style="sketch=0;points=[[0.015,0.015,0],[0.985,0.015,0],[0.985,0.985,0],[0.015,0.985,0],[0.25,0,0],[0.5,0,0],[0.75,0,0],[1,0.25,0],[1,0.5,0],[1,0.75,0],[0.75,1,0],[0.5,1,0],[0.25,1,0],[0,0.75,0],[0,0.5,0],[0,0.25,0]];verticalLabelPosition=bottom;html=1;verticalAlign=top;aspect=fixed;align=center;pointerEvents=1;shape=mxgraph.cisco19.rect;prIcon=firewall;fillColor=#ffcd28;strokeColor=#663300;gradientColor=#DE9000;" parent="kzVESOwCpPis6eRwZn5d-25" vertex="1">
          <mxGeometry width="85.36956521739125" height="66.69497282608691" as="geometry" />
        </mxCell>
        <mxCell id="kzVESOwCpPis6eRwZn5d-27" value="" style="shape=image;html=1;verticalAlign=top;verticalLabelPosition=bottom;labelBackgroundColor=#ffffff;imageAspect=0;aspect=fixed;image=https://cdn4.iconfinder.com/data/icons/game-of-thrones-4/64/game_of_thrones_game_thrones_series_element_fire_flame_heat-128.png;strokeColor=default;fontColor=#7F00FF;fillColor=#FF8000;gradientColor=none;" parent="kzVESOwCpPis6eRwZn5d-25" vertex="1">
          <mxGeometry x="22.51157407407409" y="15.111111111111112" width="46.93349939613523" height="46.93349939613523" as="geometry" />
        </mxCell>
        <mxCell id="KS16TajQ8b80VT59eIvG-8" value="" style="endArrow=none;html=1;rounded=0;entryX=0.5;entryY=0;entryDx=0;entryDy=0;entryPerimeter=0;strokeWidth=2;" parent="1" source="kzVESOwCpPis6eRwZn5d-2" target="KS16TajQ8b80VT59eIvG-37" edge="1">
          <mxGeometry width="50" height="50" relative="1" as="geometry">
            <mxPoint x="640" y="510" as="sourcePoint" />
            <mxPoint x="842.6847826086955" y="710" as="targetPoint" />
          </mxGeometry>
        </mxCell>
        <mxCell id="KS16TajQ8b80VT59eIvG-9" value="" style="endArrow=none;html=1;rounded=0;entryX=0.5;entryY=0;entryDx=0;entryDy=0;entryPerimeter=0;strokeWidth=2;" parent="1" source="kzVESOwCpPis6eRwZn5d-2" target="kzVESOwCpPis6eRwZn5d-26" edge="1">
          <mxGeometry width="50" height="50" relative="1" as="geometry">
            <mxPoint x="1060.521739130435" y="650" as="sourcePoint" />
            <mxPoint x="982.684782608696" y="720" as="targetPoint" />
          </mxGeometry>
        </mxCell>
        <mxCell id="KS16TajQ8b80VT59eIvG-10" value="" style="endArrow=none;html=1;rounded=0;strokeWidth=2;" parent="1" source="KS16TajQ8b80VT59eIvG-42" target="kzVESOwCpPis6eRwZn5d-2" edge="1">
          <mxGeometry width="50" height="50" relative="1" as="geometry">
            <mxPoint x="1100" y="420" as="sourcePoint" />
            <mxPoint x="690" y="460" as="targetPoint" />
          </mxGeometry>
        </mxCell>
        <mxCell id="KS16TajQ8b80VT59eIvG-11" value="" style="outlineConnect=0;dashed=0;verticalLabelPosition=bottom;verticalAlign=top;align=center;html=1;shape=mxgraph.aws3.police_emergency;fillColor=#A65300;gradientColor=none;sketch=0;strokeColor=#82B366;" parent="1" vertex="1">
          <mxGeometry x="1288" y="430" width="70" height="59.3" as="geometry" />
        </mxCell>
        <mxCell id="KS16TajQ8b80VT59eIvG-14" value="" style="endArrow=none;html=1;rounded=0;strokeWidth=2;startArrow=none;" parent="1" target="KS16TajQ8b80VT59eIvG-44" edge="1">
          <mxGeometry width="50" height="50" relative="1" as="geometry">
            <mxPoint x="867.1578938774296" y="403.9999346846794" as="sourcePoint" />
            <mxPoint x="860" y="510" as="targetPoint" />
          </mxGeometry>
        </mxCell>
        <mxCell id="KS16TajQ8b80VT59eIvG-17" value="" style="ellipse;shape=cloud;whiteSpace=wrap;html=1;sketch=0;strokeColor=#82B366;fillColor=#003333;gradientColor=#CCCCCC;" parent="1" vertex="1">
          <mxGeometry x="570" y="890" width="200" height="120" as="geometry" />
        </mxCell>
        <mxCell id="KS16TajQ8b80VT59eIvG-19" value="" style="endArrow=none;html=1;rounded=0;strokeWidth=2;entryX=0;entryY=1;entryDx=0;entryDy=0;entryPerimeter=0;" parent="1" source="KS16TajQ8b80VT59eIvG-42" target="KS16TajQ8b80VT59eIvG-20" edge="1">
          <mxGeometry width="50" height="50" relative="1" as="geometry">
            <mxPoint x="1030" y="380" as="sourcePoint" />
            <mxPoint x="1000" y="130" as="targetPoint" />
          </mxGeometry>
        </mxCell>
        <mxCell id="KS16TajQ8b80VT59eIvG-20" value="" style="fontColor=#0066CC;verticalAlign=top;verticalLabelPosition=bottom;labelPosition=center;align=center;html=1;outlineConnect=0;fillColor=#CCCCCC;strokeColor=#6881B3;gradientColor=none;gradientDirection=north;strokeWidth=2;shape=mxgraph.networks.rack;sketch=0;" parent="1" vertex="1">
          <mxGeometry x="1000" y="40" width="170" height="190" as="geometry" />
        </mxCell>
        <mxCell id="KS16TajQ8b80VT59eIvG-21" value="" style="endArrow=none;html=1;rounded=0;strokeWidth=2;entryX=1;entryY=1;entryDx=0;entryDy=0;entryPerimeter=0;" parent="1" source="KS16TajQ8b80VT59eIvG-42" target="KS16TajQ8b80VT59eIvG-20" edge="1">
          <mxGeometry width="50" height="50" relative="1" as="geometry">
            <mxPoint x="1153.01692" y="394.3289999999997" as="sourcePoint" />
            <mxPoint x="1020" y="125" as="targetPoint" />
          </mxGeometry>
        </mxCell>
        <mxCell id="KS16TajQ8b80VT59eIvG-24" value="" style="endArrow=none;html=1;rounded=0;strokeWidth=2;exitX=0.5;exitY=1;exitDx=0;exitDy=0;exitPerimeter=0;entryX=0.625;entryY=0.2;entryDx=0;entryDy=0;entryPerimeter=0;" parent="1" target="KS16TajQ8b80VT59eIvG-17" edge="1">
          <mxGeometry width="50" height="50" relative="1" as="geometry">
            <mxPoint x="860" y="540" as="sourcePoint" />
            <mxPoint x="879" y="530" as="targetPoint" />
          </mxGeometry>
        </mxCell>
        <mxCell id="KS16TajQ8b80VT59eIvG-36" value="" style="group" parent="1" vertex="1" connectable="0">
          <mxGeometry x="900" y="712" width="100" height="102" as="geometry" />
        </mxCell>
        <mxCell id="KS16TajQ8b80VT59eIvG-37" value="" style="sketch=0;points=[[0.015,0.015,0],[0.985,0.015,0],[0.985,0.985,0],[0.015,0.985,0],[0.25,0,0],[0.5,0,0],[0.75,0,0],[1,0.25,0],[1,0.5,0],[1,0.75,0],[0.75,1,0],[0.5,1,0],[0.25,1,0],[0,0.75,0],[0,0.5,0],[0,0.25,0]];verticalLabelPosition=bottom;html=1;verticalAlign=top;aspect=fixed;align=center;pointerEvents=1;shape=mxgraph.cisco19.rect;prIcon=firewall;fillColor=#ffcd28;strokeColor=#663300;gradientColor=#DE9000;" parent="KS16TajQ8b80VT59eIvG-36" vertex="1">
          <mxGeometry width="85.36956521739125" height="66.69497282608691" as="geometry" />
        </mxCell>
        <mxCell id="KS16TajQ8b80VT59eIvG-38" value="" style="shape=image;html=1;verticalAlign=top;verticalLabelPosition=bottom;labelBackgroundColor=#ffffff;imageAspect=0;aspect=fixed;image=https://cdn4.iconfinder.com/data/icons/game-of-thrones-4/64/game_of_thrones_game_thrones_series_element_fire_flame_heat-128.png;strokeColor=default;fontColor=#7F00FF;fillColor=#FF8000;gradientColor=none;" parent="KS16TajQ8b80VT59eIvG-36" vertex="1">
          <mxGeometry x="22.51157407407409" y="15.111111111111112" width="46.93349939613523" height="46.93349939613523" as="geometry" />
        </mxCell>
        <mxCell id="KS16TajQ8b80VT59eIvG-42" value="" style="sketch=0;pointerEvents=1;shadow=0;dashed=0;html=1;strokeColor=none;fillColor=#4D4D4D;labelPosition=center;verticalLabelPosition=bottom;verticalAlign=top;align=center;outlineConnect=0;shape=mxgraph.veeam2.physical_switch;strokeWidth=0;" parent="1" vertex="1">
          <mxGeometry x="1015" y="390" width="140" height="35" as="geometry" />
        </mxCell>
        <mxCell id="KS16TajQ8b80VT59eIvG-43" value="" style="fontColor=#0066CC;verticalAlign=top;verticalLabelPosition=bottom;labelPosition=center;align=center;html=1;outlineConnect=0;fillColor=#CCCCCC;strokeColor=#6881B3;gradientColor=none;gradientDirection=north;strokeWidth=2;shape=mxgraph.networks.router;sketch=0;" parent="1" vertex="1">
          <mxGeometry x="820" y="380" width="100" height="30" as="geometry" />
        </mxCell>
        <mxCell id="KS16TajQ8b80VT59eIvG-44" value="" style="sketch=0;pointerEvents=1;shadow=0;dashed=0;html=1;strokeColor=none;fillColor=#4D4D4D;labelPosition=center;verticalLabelPosition=bottom;verticalAlign=top;align=center;outlineConnect=0;shape=mxgraph.veeam2.physical_switch;strokeWidth=0;direction=east;" parent="1" vertex="1">
          <mxGeometry x="800" y="510" width="140" height="35" as="geometry" />
        </mxCell>
        <mxCell id="KS16TajQ8b80VT59eIvG-45" value="" style="endArrow=none;html=1;rounded=0;strokeWidth=2;exitX=0;exitY=0.5;exitDx=0;exitDy=0;exitPerimeter=0;fillColor=#ffe6cc;strokeColor=#FF8000;" parent="1" source="KS16TajQ8b80VT59eIvG-11" target="KS16TajQ8b80VT59eIvG-42" edge="1">
          <mxGeometry width="50" height="50" relative="1" as="geometry">
            <mxPoint x="1095" y="435" as="sourcePoint" />
            <mxPoint x="1095" y="570" as="targetPoint" />
          </mxGeometry>
        </mxCell>
        <mxCell id="KS16TajQ8b80VT59eIvG-46" value="" style="endArrow=none;html=1;rounded=0;strokeWidth=2;entryX=1;entryY=0.5;entryDx=0;entryDy=0;entryPerimeter=0;" parent="1" target="KS16TajQ8b80VT59eIvG-43" edge="1">
          <mxGeometry width="50" height="50" relative="1" as="geometry">
            <mxPoint x="1020" y="400" as="sourcePoint" />
            <mxPoint x="1010" y="240" as="targetPoint" />
          </mxGeometry>
        </mxCell>
        <mxCell id="KS16TajQ8b80VT59eIvG-47" value="" style="fontColor=#0066CC;verticalAlign=top;verticalLabelPosition=bottom;labelPosition=center;align=center;html=1;outlineConnect=0;fillColor=#CCCCCC;strokeColor=#6881B3;gradientColor=none;gradientDirection=north;strokeWidth=2;shape=mxgraph.networks.rack;sketch=0;" parent="1" vertex="1">
          <mxGeometry x="50" y="40" width="170" height="190" as="geometry" />
        </mxCell>
        <mxCell id="QsOe4qto3tGyinNlIBtK-1" value="" style="strokeColor=#666666;html=1;labelPosition=right;align=left;spacingLeft=15;shadow=0;dashed=0;outlineConnect=0;shape=mxgraph.rack.general.cat5e_rack_mount_patch_panel_96_ports;fillColor=#f5f5f5;gradientColor=#b3b3b3;" vertex="1" parent="1">
          <mxGeometry x="80" y="300" width="110" height="80" as="geometry" />
        </mxCell>
        <mxCell id="QsOe4qto3tGyinNlIBtK-2" value="" style="strokeColor=#666666;html=1;labelPosition=right;align=left;spacingLeft=15;shadow=0;dashed=0;outlineConnect=0;shape=mxgraph.rack.general.cat5e_rack_mount_patch_panel_96_ports;fillColor=#f5f5f5;gradientColor=#b3b3b3;" vertex="1" parent="1">
          <mxGeometry x="390" y="431.79999999999995" width="110" height="80" as="geometry" />
        </mxCell>
        <mxCell id="QsOe4qto3tGyinNlIBtK-3" value="" style="sketch=0;pointerEvents=1;shadow=0;dashed=0;html=1;strokeColor=none;fillColor=#4D4D4D;labelPosition=center;verticalLabelPosition=bottom;verticalAlign=top;align=center;outlineConnect=0;shape=mxgraph.veeam2.physical_switch;strokeWidth=0;" vertex="1" parent="1">
          <mxGeometry x="70" y="454.29999999999995" width="140" height="35" as="geometry" />
        </mxCell>
        <mxCell id="QsOe4qto3tGyinNlIBtK-4" value="" style="fontColor=#0066CC;verticalAlign=top;verticalLabelPosition=bottom;labelPosition=center;align=center;html=1;outlineConnect=0;fillColor=#CCCCCC;strokeColor=#6881B3;gradientColor=none;gradientDirection=north;strokeWidth=2;shape=mxgraph.networks.router;sketch=0;" vertex="1" parent="1">
          <mxGeometry x="395" y="590" width="100" height="30" as="geometry" />
        </mxCell>
        <mxCell id="QsOe4qto3tGyinNlIBtK-11" value="" style="shape=mxgraph.rack.cisco.cisco_asr_1002_router;html=1;labelPosition=right;align=left;spacingLeft=15;dashed=0;shadow=0;fillColor=#ffffff;" vertex="1" parent="1">
          <mxGeometry x="376.5" y="690" width="137" height="40" as="geometry" />
        </mxCell>
      </root>
    </mxGraphModel>
  </diagram>
</mxfile>
